<mxfile host="Electron" modified="2024-03-21T08:56:26.564Z" agent="Mozilla/5.0 (Windows NT 10.0; Win64; x64) AppleWebKit/537.36 (KHTML, like Gecko) draw.io/23.1.5 Chrome/120.0.6099.109 Electron/28.1.0 Safari/537.36" etag="w9rInsKhGEY3bobL2fZd" version="23.1.5" type="device">
  <diagram name="Pagina-1" id="XTTB_m_-eQcnrIuXEASc">
    <mxGraphModel dx="1877" dy="629" grid="1" gridSize="10" guides="1" tooltips="1" connect="1" arrows="1" fold="1" page="1" pageScale="1" pageWidth="827" pageHeight="1169" math="0" shadow="0">
      <root>
        <mxCell id="0" />
        <mxCell id="1" parent="0" />
        <mxCell id="xzv3y5BZRPjVZI_K_bFl-6" style="edgeStyle=orthogonalEdgeStyle;rounded=0;orthogonalLoop=1;jettySize=auto;html=1;exitX=1;exitY=0.5;exitDx=0;exitDy=0;entryX=0;entryY=0.5;entryDx=0;entryDy=0;endArrow=doubleBlock;endFill=1;" parent="1" source="xzv3y5BZRPjVZI_K_bFl-1" target="xzv3y5BZRPjVZI_K_bFl-4" edge="1">
          <mxGeometry relative="1" as="geometry" />
        </mxCell>
        <mxCell id="xzv3y5BZRPjVZI_K_bFl-22" style="edgeStyle=orthogonalEdgeStyle;rounded=0;orthogonalLoop=1;jettySize=auto;html=1;exitX=0.5;exitY=1;exitDx=0;exitDy=0;entryX=0;entryY=0.5;entryDx=0;entryDy=0;" parent="1" source="xzv3y5BZRPjVZI_K_bFl-1" target="xzv3y5BZRPjVZI_K_bFl-12" edge="1">
          <mxGeometry relative="1" as="geometry" />
        </mxCell>
        <mxCell id="xzv3y5BZRPjVZI_K_bFl-23" style="edgeStyle=orthogonalEdgeStyle;rounded=0;orthogonalLoop=1;jettySize=auto;html=1;exitX=0.5;exitY=1;exitDx=0;exitDy=0;entryX=0;entryY=0.5;entryDx=0;entryDy=0;" parent="1" source="xzv3y5BZRPjVZI_K_bFl-1" target="xzv3y5BZRPjVZI_K_bFl-18" edge="1">
          <mxGeometry relative="1" as="geometry" />
        </mxCell>
        <mxCell id="xzv3y5BZRPjVZI_K_bFl-24" style="edgeStyle=orthogonalEdgeStyle;rounded=0;orthogonalLoop=1;jettySize=auto;html=1;exitX=0.5;exitY=1;exitDx=0;exitDy=0;entryX=0;entryY=0.5;entryDx=0;entryDy=0;" parent="1" source="xzv3y5BZRPjVZI_K_bFl-1" target="xzv3y5BZRPjVZI_K_bFl-20" edge="1">
          <mxGeometry relative="1" as="geometry" />
        </mxCell>
        <mxCell id="AS-5RW4tX4GJ2KWOvs7j-8" style="edgeStyle=orthogonalEdgeStyle;rounded=0;orthogonalLoop=1;jettySize=auto;html=1;exitX=0.5;exitY=1;exitDx=0;exitDy=0;entryX=0;entryY=0.5;entryDx=0;entryDy=0;" edge="1" parent="1" source="xzv3y5BZRPjVZI_K_bFl-1" target="AS-5RW4tX4GJ2KWOvs7j-6">
          <mxGeometry relative="1" as="geometry" />
        </mxCell>
        <mxCell id="xzv3y5BZRPjVZI_K_bFl-1" value="Libro" style="rounded=0;whiteSpace=wrap;html=1;" parent="1" vertex="1">
          <mxGeometry x="-20" y="180" width="120" height="60" as="geometry" />
        </mxCell>
        <mxCell id="xzv3y5BZRPjVZI_K_bFl-9" style="edgeStyle=orthogonalEdgeStyle;rounded=0;orthogonalLoop=1;jettySize=auto;html=1;exitX=0;exitY=0.5;exitDx=0;exitDy=0;entryX=1;entryY=0.5;entryDx=0;entryDy=0;endArrow=doubleBlock;endFill=1;" parent="1" source="xzv3y5BZRPjVZI_K_bFl-2" target="xzv3y5BZRPjVZI_K_bFl-5" edge="1">
          <mxGeometry relative="1" as="geometry" />
        </mxCell>
        <mxCell id="xzv3y5BZRPjVZI_K_bFl-31" style="edgeStyle=orthogonalEdgeStyle;rounded=0;orthogonalLoop=1;jettySize=auto;html=1;exitX=0.5;exitY=1;exitDx=0;exitDy=0;entryX=0;entryY=0.5;entryDx=0;entryDy=0;" parent="1" source="xzv3y5BZRPjVZI_K_bFl-2" target="xzv3y5BZRPjVZI_K_bFl-25" edge="1">
          <mxGeometry relative="1" as="geometry" />
        </mxCell>
        <mxCell id="xzv3y5BZRPjVZI_K_bFl-32" style="edgeStyle=orthogonalEdgeStyle;rounded=0;orthogonalLoop=1;jettySize=auto;html=1;exitX=0.5;exitY=1;exitDx=0;exitDy=0;entryX=0;entryY=0.5;entryDx=0;entryDy=0;" parent="1" source="xzv3y5BZRPjVZI_K_bFl-2" target="xzv3y5BZRPjVZI_K_bFl-27" edge="1">
          <mxGeometry relative="1" as="geometry" />
        </mxCell>
        <mxCell id="xzv3y5BZRPjVZI_K_bFl-33" style="edgeStyle=orthogonalEdgeStyle;rounded=0;orthogonalLoop=1;jettySize=auto;html=1;exitX=0.5;exitY=1;exitDx=0;exitDy=0;entryX=0;entryY=0.5;entryDx=0;entryDy=0;" parent="1" source="xzv3y5BZRPjVZI_K_bFl-2" target="xzv3y5BZRPjVZI_K_bFl-29" edge="1">
          <mxGeometry relative="1" as="geometry" />
        </mxCell>
        <mxCell id="AS-5RW4tX4GJ2KWOvs7j-3" style="edgeStyle=orthogonalEdgeStyle;rounded=0;orthogonalLoop=1;jettySize=auto;html=1;exitX=0.5;exitY=1;exitDx=0;exitDy=0;entryX=0;entryY=0.5;entryDx=0;entryDy=0;" edge="1" parent="1" source="xzv3y5BZRPjVZI_K_bFl-2" target="AS-5RW4tX4GJ2KWOvs7j-1">
          <mxGeometry relative="1" as="geometry" />
        </mxCell>
        <mxCell id="xzv3y5BZRPjVZI_K_bFl-2" value="Utente" style="rounded=0;whiteSpace=wrap;html=1;" parent="1" vertex="1">
          <mxGeometry x="750" y="180" width="120" height="60" as="geometry" />
        </mxCell>
        <mxCell id="xzv3y5BZRPjVZI_K_bFl-7" style="edgeStyle=orthogonalEdgeStyle;rounded=0;orthogonalLoop=1;jettySize=auto;html=1;exitX=0;exitY=0.5;exitDx=0;exitDy=0;entryX=1;entryY=0.5;entryDx=0;entryDy=0;endArrow=classic;endFill=1;" parent="1" source="xzv3y5BZRPjVZI_K_bFl-3" target="xzv3y5BZRPjVZI_K_bFl-4" edge="1">
          <mxGeometry relative="1" as="geometry" />
        </mxCell>
        <mxCell id="xzv3y5BZRPjVZI_K_bFl-8" style="edgeStyle=orthogonalEdgeStyle;rounded=0;orthogonalLoop=1;jettySize=auto;html=1;exitX=1;exitY=0.5;exitDx=0;exitDy=0;" parent="1" source="xzv3y5BZRPjVZI_K_bFl-3" target="xzv3y5BZRPjVZI_K_bFl-5" edge="1">
          <mxGeometry relative="1" as="geometry" />
        </mxCell>
        <mxCell id="xzv3y5BZRPjVZI_K_bFl-40" style="edgeStyle=orthogonalEdgeStyle;rounded=0;orthogonalLoop=1;jettySize=auto;html=1;exitX=0.5;exitY=1;exitDx=0;exitDy=0;entryX=0;entryY=0.5;entryDx=0;entryDy=0;" parent="1" source="xzv3y5BZRPjVZI_K_bFl-3" target="xzv3y5BZRPjVZI_K_bFl-34" edge="1">
          <mxGeometry relative="1" as="geometry" />
        </mxCell>
        <mxCell id="xzv3y5BZRPjVZI_K_bFl-41" style="edgeStyle=orthogonalEdgeStyle;rounded=0;orthogonalLoop=1;jettySize=auto;html=1;exitX=0.5;exitY=1;exitDx=0;exitDy=0;entryX=0;entryY=0.5;entryDx=0;entryDy=0;" parent="1" source="xzv3y5BZRPjVZI_K_bFl-3" target="xzv3y5BZRPjVZI_K_bFl-36" edge="1">
          <mxGeometry relative="1" as="geometry" />
        </mxCell>
        <mxCell id="AS-5RW4tX4GJ2KWOvs7j-9" style="edgeStyle=orthogonalEdgeStyle;rounded=0;orthogonalLoop=1;jettySize=auto;html=1;exitX=0.5;exitY=1;exitDx=0;exitDy=0;entryX=0;entryY=0.5;entryDx=0;entryDy=0;" edge="1" parent="1" source="xzv3y5BZRPjVZI_K_bFl-3" target="AS-5RW4tX4GJ2KWOvs7j-4">
          <mxGeometry relative="1" as="geometry" />
        </mxCell>
        <mxCell id="xzv3y5BZRPjVZI_K_bFl-3" value="Prestiti" style="rounded=0;whiteSpace=wrap;html=1;" parent="1" vertex="1">
          <mxGeometry x="360" y="180" width="120" height="60" as="geometry" />
        </mxCell>
        <mxCell id="xzv3y5BZRPjVZI_K_bFl-4" value="riguarda" style="rhombus;whiteSpace=wrap;html=1;" parent="1" vertex="1">
          <mxGeometry x="190" y="170" width="80" height="80" as="geometry" />
        </mxCell>
        <mxCell id="xzv3y5BZRPjVZI_K_bFl-5" value="riguarda" style="rhombus;whiteSpace=wrap;html=1;" parent="1" vertex="1">
          <mxGeometry x="580" y="170" width="80" height="80" as="geometry" />
        </mxCell>
        <mxCell id="xzv3y5BZRPjVZI_K_bFl-10" value="" style="endArrow=none;html=1;rounded=0;" parent="1" edge="1">
          <mxGeometry width="50" height="50" relative="1" as="geometry">
            <mxPoint x="120" y="230" as="sourcePoint" />
            <mxPoint x="120" y="190" as="targetPoint" />
          </mxGeometry>
        </mxCell>
        <mxCell id="xzv3y5BZRPjVZI_K_bFl-11" value="" style="endArrow=none;html=1;rounded=0;" parent="1" edge="1">
          <mxGeometry width="50" height="50" relative="1" as="geometry">
            <mxPoint x="730" y="230" as="sourcePoint" />
            <mxPoint x="730" y="190" as="targetPoint" />
          </mxGeometry>
        </mxCell>
        <mxCell id="xzv3y5BZRPjVZI_K_bFl-12" value="" style="ellipse;whiteSpace=wrap;html=1;aspect=fixed;" parent="1" vertex="1">
          <mxGeometry x="100" y="280" width="30" height="30" as="geometry" />
        </mxCell>
        <mxCell id="xzv3y5BZRPjVZI_K_bFl-13" value="Titolo" style="text;html=1;align=left;verticalAlign=middle;whiteSpace=wrap;rounded=0;" parent="1" vertex="1">
          <mxGeometry x="130" y="280" width="60" height="30" as="geometry" />
        </mxCell>
        <mxCell id="xzv3y5BZRPjVZI_K_bFl-18" value="" style="ellipse;whiteSpace=wrap;html=1;aspect=fixed;" parent="1" vertex="1">
          <mxGeometry x="100" y="320" width="30" height="30" as="geometry" />
        </mxCell>
        <mxCell id="xzv3y5BZRPjVZI_K_bFl-19" value="AnnoPub" style="text;html=1;align=left;verticalAlign=middle;whiteSpace=wrap;rounded=0;" parent="1" vertex="1">
          <mxGeometry x="130" y="320" width="60" height="30" as="geometry" />
        </mxCell>
        <mxCell id="xzv3y5BZRPjVZI_K_bFl-20" value="" style="ellipse;whiteSpace=wrap;html=1;aspect=fixed;" parent="1" vertex="1">
          <mxGeometry x="100" y="360" width="30" height="30" as="geometry" />
        </mxCell>
        <mxCell id="xzv3y5BZRPjVZI_K_bFl-21" value="IsDisponibile" style="text;html=1;align=left;verticalAlign=middle;whiteSpace=wrap;rounded=0;" parent="1" vertex="1">
          <mxGeometry x="130" y="360" width="60" height="30" as="geometry" />
        </mxCell>
        <mxCell id="xzv3y5BZRPjVZI_K_bFl-25" value="" style="ellipse;whiteSpace=wrap;html=1;aspect=fixed;" parent="1" vertex="1">
          <mxGeometry x="870" y="270" width="30" height="30" as="geometry" />
        </mxCell>
        <mxCell id="xzv3y5BZRPjVZI_K_bFl-26" value="Nome&lt;span style=&quot;white-space: pre;&quot;&gt;&#x9;&lt;/span&gt;" style="text;html=1;align=left;verticalAlign=middle;whiteSpace=wrap;rounded=0;" parent="1" vertex="1">
          <mxGeometry x="900" y="270" width="60" height="30" as="geometry" />
        </mxCell>
        <mxCell id="xzv3y5BZRPjVZI_K_bFl-27" value="" style="ellipse;whiteSpace=wrap;html=1;aspect=fixed;" parent="1" vertex="1">
          <mxGeometry x="870" y="310" width="30" height="30" as="geometry" />
        </mxCell>
        <mxCell id="xzv3y5BZRPjVZI_K_bFl-28" value="Cognome" style="text;html=1;align=left;verticalAlign=middle;whiteSpace=wrap;rounded=0;" parent="1" vertex="1">
          <mxGeometry x="900" y="310" width="60" height="30" as="geometry" />
        </mxCell>
        <mxCell id="xzv3y5BZRPjVZI_K_bFl-29" value="" style="ellipse;whiteSpace=wrap;html=1;aspect=fixed;fillColor=#FFFFFF;" parent="1" vertex="1">
          <mxGeometry x="870" y="350" width="30" height="30" as="geometry" />
        </mxCell>
        <mxCell id="xzv3y5BZRPjVZI_K_bFl-30" value="Email" style="text;html=1;align=left;verticalAlign=middle;whiteSpace=wrap;rounded=0;" parent="1" vertex="1">
          <mxGeometry x="900" y="350" width="60" height="30" as="geometry" />
        </mxCell>
        <mxCell id="xzv3y5BZRPjVZI_K_bFl-34" value="" style="ellipse;whiteSpace=wrap;html=1;aspect=fixed;" parent="1" vertex="1">
          <mxGeometry x="470" y="280" width="30" height="30" as="geometry" />
        </mxCell>
        <mxCell id="xzv3y5BZRPjVZI_K_bFl-35" value="DataPrestito" style="text;html=1;align=left;verticalAlign=middle;whiteSpace=wrap;rounded=0;" parent="1" vertex="1">
          <mxGeometry x="500" y="280" width="60" height="30" as="geometry" />
        </mxCell>
        <mxCell id="xzv3y5BZRPjVZI_K_bFl-36" value="" style="ellipse;whiteSpace=wrap;html=1;aspect=fixed;" parent="1" vertex="1">
          <mxGeometry x="470" y="320" width="30" height="30" as="geometry" />
        </mxCell>
        <mxCell id="xzv3y5BZRPjVZI_K_bFl-37" value="DataRitorno" style="text;html=1;align=left;verticalAlign=middle;whiteSpace=wrap;rounded=0;" parent="1" vertex="1">
          <mxGeometry x="500" y="320" width="60" height="30" as="geometry" />
        </mxCell>
        <mxCell id="AS-5RW4tX4GJ2KWOvs7j-1" value="" style="ellipse;whiteSpace=wrap;html=1;aspect=fixed;fillColor=#000000;" vertex="1" parent="1">
          <mxGeometry x="870" y="390" width="30" height="30" as="geometry" />
        </mxCell>
        <mxCell id="AS-5RW4tX4GJ2KWOvs7j-2" value="CodUtente" style="text;html=1;align=left;verticalAlign=middle;whiteSpace=wrap;rounded=0;" vertex="1" parent="1">
          <mxGeometry x="900" y="390" width="60" height="30" as="geometry" />
        </mxCell>
        <mxCell id="AS-5RW4tX4GJ2KWOvs7j-4" value="" style="ellipse;whiteSpace=wrap;html=1;aspect=fixed;fillColor=#000000;" vertex="1" parent="1">
          <mxGeometry x="470" y="361" width="30" height="30" as="geometry" />
        </mxCell>
        <mxCell id="AS-5RW4tX4GJ2KWOvs7j-5" value="Codice Pres" style="text;html=1;align=left;verticalAlign=middle;whiteSpace=wrap;rounded=0;" vertex="1" parent="1">
          <mxGeometry x="500" y="361" width="60" height="30" as="geometry" />
        </mxCell>
        <mxCell id="AS-5RW4tX4GJ2KWOvs7j-6" value="" style="ellipse;whiteSpace=wrap;html=1;aspect=fixed;fillColor=#000000;" vertex="1" parent="1">
          <mxGeometry x="100" y="400" width="30" height="30" as="geometry" />
        </mxCell>
        <mxCell id="AS-5RW4tX4GJ2KWOvs7j-7" value="ISBN" style="text;html=1;align=left;verticalAlign=middle;whiteSpace=wrap;rounded=0;" vertex="1" parent="1">
          <mxGeometry x="130" y="400" width="60" height="30" as="geometry" />
        </mxCell>
        <mxCell id="AS-5RW4tX4GJ2KWOvs7j-10" value="" style="endArrow=none;html=1;rounded=0;" edge="1" parent="1">
          <mxGeometry width="50" height="50" relative="1" as="geometry">
            <mxPoint x="826" y="385" as="sourcePoint" />
            <mxPoint x="826" y="345" as="targetPoint" />
          </mxGeometry>
        </mxCell>
        <mxCell id="AS-5RW4tX4GJ2KWOvs7j-11" value="" style="endArrow=none;html=1;rounded=0;" edge="1" parent="1">
          <mxGeometry width="50" height="50" relative="1" as="geometry">
            <mxPoint x="440" y="355" as="sourcePoint" />
            <mxPoint x="440" y="315" as="targetPoint" />
          </mxGeometry>
        </mxCell>
      </root>
    </mxGraphModel>
  </diagram>
</mxfile>
